<?xml version="1.0" standalone="no"?>
<!DOCTYPE svg PUBLIC "-//W3C//DTD SVG 20010904//EN"
 "http://www.w3.org/TR/2001/REC-SVG-20010904/DTD/svg10.dtd">
<svg version="1.0" xmlns="http://www.w3.org/2000/svg"
 width="1080.000000pt" height="1080.000000pt" viewBox="0 0 1080.000000 1080.000000"
 preserveAspectRatio="xMidYMid meet">
<metadata>
Created by potrace 1.14, written by Peter Selinger 2001-2017
</metadata>
<g transform="translate(0.000000,1080.000000) scale(0.100000,-0.100000)"
fill="#000000" stroke="none">
<path d="M3310 6305 l0 -115 110 0 110 0 0 115 0 115 -110 0 -110 0 0 -115z"/>
<path d="M3770 6305 l0 -115 110 0 110 0 0 115 0 115 -110 0 -110 0 0 -115z"/>
<path d="M3310 5850 l0 -110 110 0 110 0 0 110 0 110 -110 0 -110 0 0 -110z"/>
<path d="M3770 5850 l0 -110 110 0 110 0 0 110 0 110 -110 0 -110 0 0 -110z"/>
<path d="M1677 5265 c-65 -21 -122 -79 -141 -146 -20 -66 -21 -210 -2 -273 32
-106 102 -156 227 -164 98 -6 161 14 212 66 l37 38 -46 32 -46 33 -33 -30
c-77 -68 -193 -45 -231 45 -17 40 -19 181 -3 221 35 94 167 120 235 46 l24
-26 44 34 c40 31 43 36 32 54 -7 11 -34 33 -59 48 -57 36 -174 46 -250 22z"/>
<path d="M2270 5268 c-56 -16 -100 -56 -129 -117 -23 -50 -26 -68 -26 -171 0
-100 3 -122 24 -168 43 -94 107 -132 227 -132 131 0 211 78 234 228 21 133
-12 256 -84 320 -56 49 -157 66 -246 40z m158 -114 c37 -24 53 -75 53 -174 0
-128 -29 -184 -103 -196 -48 -8 -103 17 -125 58 -27 50 -26 229 2 278 34 57
113 73 173 34z"/>
<path d="M3463 5263 c-100 -35 -143 -169 -81 -248 26 -33 75 -58 167 -83 95
-27 121 -45 121 -81 0 -76 -131 -94 -206 -29 l-34 30 -28 -21 c-57 -40 -59
-48 -22 -86 47 -48 113 -68 208 -63 136 7 193 53 200 164 7 107 -29 147 -169
188 -107 31 -136 44 -142 65 -20 78 127 106 193 36 l23 -24 26 19 c73 55 71
47 24 90 -66 59 -185 77 -280 43z"/>
<path d="M2750 4980 l0 -290 55 0 55 0 2 203 3 202 105 -202 105 -203 67 0 68
0 0 290 0 290 -55 0 -55 0 -2 -192 -3 -193 -98 193 -97 192 -75 0 -75 0 0
-290z"/>
<path d="M3890 5215 l0 -55 90 0 90 0 0 -235 0 -235 55 0 55 0 0 235 0 235 90
0 90 0 0 55 0 55 -235 0 -235 0 0 -55z"/>
<path d="M4480 4981 l0 -291 60 0 60 0 0 110 0 110 28 0 c25 0 38 -14 103
-110 l74 -110 68 0 67 0 -77 115 c-42 63 -74 116 -72 118 2 1 17 9 34 17 52
27 75 73 75 152 0 86 -17 121 -73 150 -37 19 -61 23 -194 26 l-153 4 0 -291z
m288 165 c20 -20 19 -93 -2 -114 -11 -12 -39 -18 -91 -20 l-75 -4 0 82 0 83
76 -6 c48 -4 83 -11 92 -21z"/>
<path d="M5195 5258 c-18 -47 -185 -554 -185 -561 0 -4 26 -7 57 -5 l56 3 20
58 19 58 111 -3 110 -3 20 -57 19 -58 59 0 c32 0 59 1 59 3 0 1 -42 130 -93
287 l-93 285 -77 3 c-56 2 -79 -1 -82 -10z m151 -330 c5 -16 -2 -18 -70 -18
-42 0 -76 3 -76 6 0 10 61 208 68 218 4 8 38 -80 78 -206z"/>
<path d="M5910 4980 l0 -290 55 0 55 0 0 90 0 90 79 0 c163 0 225 55 225 200
0 157 -62 200 -291 200 l-123 0 0 -290z m259 170 c25 -13 43 -66 35 -106 -9
-51 -36 -68 -115 -72 l-69 -4 0 94 c0 52 3 98 8 102 9 10 117 -1 141 -14z"/>
<path d="M6420 5259 c0 -9 105 -358 161 -537 l11 -33 70 3 70 3 89 285 c49
156 89 285 89 287 0 2 -26 3 -58 3 l-58 0 -59 -197 c-32 -109 -62 -205 -66
-213 -7 -13 -23 34 -106 310 l-29 95 -57 3 c-39 2 -57 -1 -57 -9z"/>
<path d="M6980 5215 l0 -55 90 0 90 0 0 -235 0 -235 60 0 60 0 0 235 0 235 85
0 85 0 0 55 0 55 -235 0 -235 0 0 -55z"/>
<path d="M7820 4980 l0 -290 180 0 180 0 0 55 0 55 -120 0 -120 0 0 235 0 235
-60 0 -60 0 0 -290z"/>
<path d="M8250 5215 l0 -55 90 0 90 0 0 -235 0 -235 55 0 55 0 0 235 0 235 90
0 90 0 0 55 0 55 -235 0 -235 0 0 -55z"/>
<path d="M8838 5264 c-5 -4 -8 -135 -8 -291 l0 -283 120 0 c152 0 207 12 258
55 51 44 73 100 79 200 10 154 -30 251 -123 296 -41 19 -68 23 -184 27 -74 2
-138 1 -142 -4z m257 -118 c43 -18 62 -48 71 -113 11 -84 -3 -159 -36 -196
-26 -29 -33 -32 -104 -35 l-76 -4 0 181 0 181 55 0 c31 0 71 -6 90 -14z"/>
<path d="M1880 4020 c0 -14 7106 -14 7115 0 4 7 -1183 10 -3554 10 -2367 0
-3561 -3 -3561 -10z"/>
<path d="M2200 3470 l0 -120 65 0 c37 0 65 4 65 10 0 6 -22 10 -50 10 l-50 0
0 45 0 45 45 0 c25 0 45 5 45 10 0 6 -20 10 -45 10 l-45 0 0 45 0 45 50 0 c28
0 50 5 50 10 0 6 -28 10 -65 10 l-65 0 0 -120z"/>
<path d="M2476 3578 c4 -7 20 -32 36 -55 15 -23 28 -45 28 -50 0 -5 -16 -32
-35 -60 -39 -58 -41 -63 -22 -63 7 0 27 23 44 51 l32 52 31 -52 c18 -28 39
-51 47 -51 16 0 15 2 -43 89 l-23 34 23 31 c50 67 60 86 43 86 -8 0 -28 -20
-44 -45 -15 -25 -31 -45 -35 -45 -4 0 -19 20 -34 45 -14 25 -32 45 -41 45 -8
0 -11 -5 -7 -12z"/>
<path d="M2831 3565 c-40 -34 -56 -84 -41 -130 27 -82 126 -113 189 -59 42 35
30 49 -16 19 -42 -29 -63 -31 -103 -10 -35 18 -50 43 -50 85 0 42 15 67 50 85
40 21 61 19 103 -10 46 -30 58 -16 16 19 -42 36 -106 36 -148 1z"/>
<path d="M3160 3470 l0 -120 70 0 c40 0 70 4 70 10 0 6 -25 10 -55 10 l-55 0
0 45 0 45 45 0 c25 0 45 5 45 10 0 6 -20 10 -45 10 l-45 0 0 45 0 45 55 0 c30
0 55 5 55 10 0 6 -30 10 -70 10 l-70 0 0 -120z"/>
<path d="M3460 3470 c0 -73 4 -120 10 -120 6 0 10 25 10 55 l0 55 45 0 c77 0
112 61 62 108 -18 17 -36 22 -75 22 l-52 0 0 -120z m94 90 c18 -6 26 -17 26
-33 0 -33 -18 -47 -62 -47 -37 0 -38 1 -38 38 0 21 3 42 7 45 9 10 38 9 67 -3z"/>
<path d="M3730 3575 c0 -10 10 -15 30 -15 l30 0 0 -105 c0 -87 3 -105 15 -105
12 0 15 18 15 105 l0 105 30 0 c20 0 30 5 30 15 0 12 -15 15 -75 15 -60 0 -75
-3 -75 -15z"/>
<path d="M4030 3470 c0 -73 4 -120 10 -120 6 0 10 47 10 120 0 73 -4 120 -10
120 -6 0 -10 -47 -10 -120z"/>
<path d="M4268 3572 c-30 -18 -58 -67 -58 -102 0 -98 125 -157 199 -94 86 72
38 214 -72 214 -23 0 -54 -8 -69 -18z m111 -16 c73 -38 64 -150 -14 -176 -66
-22 -125 21 -125 90 0 77 70 121 139 86z"/>
<path d="M4610 3470 c0 -100 3 -120 15 -120 12 0 15 17 15 97 l0 96 70 -94
c39 -52 77 -95 85 -97 13 -3 15 17 15 117 0 100 -3 121 -15 121 -11 0 -15 -19
-17 -92 l-3 -93 -70 93 c-38 50 -75 92 -82 92 -10 0 -13 -30 -13 -120z"/>
<path d="M4990 3475 c-23 -64 -39 -119 -35 -123 8 -8 35 26 35 45 0 9 16 13
54 13 51 0 55 -2 65 -30 5 -16 16 -30 24 -30 20 0 -65 234 -86 238 -10 2 -26
-30 -57 -113z m84 11 c9 -27 16 -51 16 -53 0 -2 -20 -3 -44 -3 l-45 0 21 61
c11 33 24 57 28 52 4 -4 15 -30 24 -57z"/>
<path d="M5280 3470 l0 -120 60 0 c47 0 60 3 60 15 0 11 -12 15 -45 15 l-45 0
0 105 c0 87 -3 105 -15 105 -12 0 -15 -20 -15 -120z"/>
<path d="M5740 3470 c0 -100 3 -120 15 -120 12 0 15 13 15 55 l0 55 43 0 c52
0 77 22 77 68 0 42 -31 62 -97 62 l-53 0 0 -120z m108 84 c42 -29 15 -74 -44
-74 -34 0 -34 0 -34 45 0 43 2 45 28 45 15 0 38 -7 50 -16z"/>
<path d="M6040 3470 c0 -73 4 -120 10 -120 6 0 10 25 10 55 0 52 1 55 24 55
19 0 32 -12 58 -55 18 -30 38 -55 45 -55 19 0 17 6 -18 56 l-31 45 26 24 c56
52 16 115 -72 115 l-52 0 0 -120z m118 61 c5 -31 -21 -51 -65 -51 -32 0 -33 1
-33 41 l0 40 48 -3 c41 -3 47 -6 50 -27z"/>
<path d="M6374 3556 c-30 -30 -34 -40 -34 -86 0 -46 4 -56 34 -86 28 -28 42
-34 75 -34 78 0 131 49 131 120 0 71 -53 120 -131 120 -33 0 -47 -6 -75 -34z
m143 -8 c9 -7 22 -28 30 -45 11 -28 11 -38 0 -65 -19 -46 -43 -63 -89 -63 -33
0 -46 7 -69 33 -41 45 -39 84 6 129 31 31 40 35 71 30 20 -3 43 -12 51 -19z"/>
<path d="M6740 3470 c0 -69 4 -120 9 -120 6 0 11 24 13 53 l3 52 45 3 c54 4
80 25 80 64 0 46 -31 68 -95 68 l-55 0 0 -120z m110 80 c24 -24 25 -34 4 -55
-11 -10 -29 -15 -53 -13 -31 3 -36 7 -39 31 -2 16 -1 35 2 43 8 21 63 17 86
-6z"/>
<path d="M7040 3470 l0 -120 65 0 c78 0 88 18 13 22 l-53 3 -3 43 -3 42 45 0
c25 0 46 5 46 10 0 6 -21 10 -46 10 l-45 0 3 43 3 42 53 3 c75 4 65 22 -13 22
l-65 0 0 -120z"/>
<path d="M7330 3470 c0 -73 4 -120 10 -120 6 0 10 25 10 55 0 52 1 55 24 55
19 0 32 -12 58 -55 18 -30 38 -55 45 -55 19 0 17 6 -18 56 l-31 45 26 24 c56
52 16 115 -72 115 l-52 0 0 -120z m118 61 c5 -31 -21 -51 -65 -51 -32 0 -33 1
-33 41 l0 40 48 -3 c41 -3 47 -6 50 -27z"/>
<path d="M7610 3575 c0 -10 11 -15 35 -15 l35 0 0 -105 c0 -63 4 -105 10 -105
6 0 10 41 10 104 l0 105 32 3 c17 2 33 9 36 16 3 9 -17 12 -77 12 -65 0 -81
-3 -81 -15z"/>
<path d="M7910 3470 c0 -73 4 -120 10 -120 6 0 10 47 10 120 0 73 -4 120 -10
120 -6 0 -10 -47 -10 -120z"/>
<path d="M8141 3565 c-40 -34 -56 -84 -41 -130 27 -82 126 -113 189 -59 42 35
30 49 -16 19 -42 -29 -63 -31 -103 -10 -35 18 -50 43 -50 85 0 42 15 67 50 85
40 21 61 19 103 -10 46 -30 58 -16 16 19 -42 36 -106 36 -148 1z"/>
<path d="M8470 3470 l0 -120 70 0 c40 0 70 4 70 10 0 6 -25 10 -55 10 l-55 0
0 45 0 45 45 0 c25 0 45 5 45 10 0 6 -20 10 -45 10 l-45 0 0 45 0 45 55 0 c30
0 55 5 55 10 0 6 -30 10 -70 10 l-70 0 0 -120z"/>
</g>
</svg>
